<?xml version="1.0" encoding="UTF-8"?>
<svg width="24px" height="24px" viewBox="0 0 24 24" version="1.1" xmlns="http://www.w3.org/2000/svg">
    <g stroke="none" stroke-width="1" fill="none" fill-rule="evenodd">
        <path d="M21.582,7.15 C21.352,6.296 20.696,5.64 19.842,5.41 C18.254,5 12,5 12,5 C12,5 5.746,5 4.158,5.41 C3.304,5.64 2.648,6.296 2.418,7.15 C2,8.738 2,12 2,12 C2,12 2,15.262 2.418,16.85 C2.648,17.704 3.304,18.36 4.158,18.59 C5.746,19 12,19 12,19 C12,19 18.254,19 19.842,18.59 C20.696,18.36 21.352,17.704 21.582,16.85 C22,15.262 22,12 22,12 C22,12 22,8.738 21.582,7.15 Z M10,15 L10,9 L15,12 L10,15 Z" fill="#000000" fill-rule="nonzero"></path>
    </g>
</svg> 